<svg xmlns="http://www.w3.org/2000/svg" viewBox="0 0 1024 1024" width="1024" height="1024">
  <defs>
    <linearGradient id="bg" x1="0%" y1="0%" x2="100%" y2="100%">
      <stop offset="0%" stop-color="#FF6B35" stop-opacity="0.06"/>
      <stop offset="100%" stop-color="#FF6B35" stop-opacity="0.16"/>
    </linearGradient>
    <linearGradient id="mgTileCover" x1="0%" y1="0%" x2="100%" y2="100%">
      <stop offset="0%" stop-color="#E5F0FC"/>
      <stop offset="100%" stop-color="#B7D3F2"/>
    </linearGradient>
    <radialGradient id="mgCoreCover" cx="45%" cy="40%" r="55%">
      <stop offset="0%" stop-color="#FFE066"/>
      <stop offset="70%" stop-color="#F5B529"/>
      <stop offset="100%" stop-color="#C68708"/>
    </radialGradient>
    <clipPath id="coverClip">
      <rect x="-31.373737373737413" y="132" width="537.3737373737374" height="760" rx="6" ry="6"/>
    </clipPath>
    
    <filter id="shadowDouble" x="-15%" y="-15%" width="130%" height="130%">
      <feDropShadow dx="0" dy="4" stdDeviation="6" flood-color="#000" flood-opacity="0.18"/>
      <feDropShadow dx="0" dy="18" stdDeviation="24" flood-color="#FF6B35" flood-opacity="0.22"/>
    </filter>
    <linearGradient id="paperHighlight" x1="0%" y1="0%" x2="0%" y2="100%">
      <stop offset="0%" stop-color="#ffffff" stop-opacity="0.35"/>
      <stop offset="35%" stop-color="#ffffff" stop-opacity="0.05"/>
      <stop offset="100%" stop-color="#ffffff" stop-opacity="0"/>
    </linearGradient>
    <pattern id="paperTexture" width="6" height="6" patternUnits="userSpaceOnUse">
      <rect width="6" height="6" fill="white"/>
      <circle cx="1" cy="1" r="0.3" fill="#e5e5e5" opacity="0.6"/>
      <circle cx="4" cy="3" r="0.25" fill="#e5e5e5" opacity="0.5"/>
    </pattern>
  </defs>
  <rect width="1024" height="1024" fill="url(#bg)"/>
  <rect x="-31.373737373737413" y="132" width="537.3737373737374" height="760" fill="url(#mgTileCover)" stroke="#FF6B35" stroke-width="2" rx="6" ry="6" filter="url(#shadowDouble)"/>
  <g clip-path="url(#coverClip)">
    <g transform="translate(237.3131313131313 360)">
    <g fill="#FFFFFF"><ellipse cx="0" cy="-99.7979797979798" rx="13.434343434343436" ry="61.41414141414142" transform="rotate(0)"/><ellipse cx="0" cy="-99.7979797979798" rx="13.434343434343436" ry="61.41414141414142" transform="rotate(20)"/><ellipse cx="0" cy="-99.7979797979798" rx="13.434343434343436" ry="61.41414141414142" transform="rotate(40)"/><ellipse cx="0" cy="-99.7979797979798" rx="13.434343434343436" ry="61.41414141414142" transform="rotate(60)"/><ellipse cx="0" cy="-99.7979797979798" rx="13.434343434343436" ry="61.41414141414142" transform="rotate(80)"/><ellipse cx="0" cy="-99.7979797979798" rx="13.434343434343436" ry="61.41414141414142" transform="rotate(100)"/><ellipse cx="0" cy="-99.7979797979798" rx="13.434343434343436" ry="61.41414141414142" transform="rotate(120)"/><ellipse cx="0" cy="-99.7979797979798" rx="13.434343434343436" ry="61.41414141414142" transform="rotate(140)"/><ellipse cx="0" cy="-99.7979797979798" rx="13.434343434343436" ry="61.41414141414142" transform="rotate(160)"/><ellipse cx="0" cy="-99.7979797979798" rx="13.434343434343436" ry="61.41414141414142" transform="rotate(180)"/><ellipse cx="0" cy="-99.7979797979798" rx="13.434343434343436" ry="61.41414141414142" transform="rotate(200)"/><ellipse cx="0" cy="-99.7979797979798" rx="13.434343434343436" ry="61.41414141414142" transform="rotate(220)"/><ellipse cx="0" cy="-99.7979797979798" rx="13.434343434343436" ry="61.41414141414142" transform="rotate(240)"/><ellipse cx="0" cy="-99.7979797979798" rx="13.434343434343436" ry="61.41414141414142" transform="rotate(260)"/><ellipse cx="0" cy="-99.7979797979798" rx="13.434343434343436" ry="61.41414141414142" transform="rotate(280)"/><ellipse cx="0" cy="-99.7979797979798" rx="13.434343434343436" ry="61.41414141414142" transform="rotate(300)"/><ellipse cx="0" cy="-99.7979797979798" rx="13.434343434343436" ry="61.41414141414142" transform="rotate(320)"/><ellipse cx="0" cy="-99.7979797979798" rx="13.434343434343436" ry="61.41414141414142" transform="rotate(340)"/></g>
    <circle r="42.22222222222223" fill="url(#mgCoreCover)"/>
  </g>
    <rect x="-31.373737373737413" y="884" width="537.3737373737374" height="8" fill="#F5B529"/>
  </g>
  <rect x="-31.373737373737413" y="132" width="537.3737373737374" height="760" fill="url(#paperHighlight)" rx="6" ry="6" opacity="0.5" pointer-events="none"/>
  <text x="237.3131313131313" y="603.2" text-anchor="middle" font-family="Inter" font-size="56" font-weight="500" font-style="italic" fill="#0F172A" letter-spacing="-0.025em">Magrit</text>
  <text x="237.3131313131313" y="633.2" text-anchor="middle" font-family="Inter" font-size="14" font-weight="400" fill="#0F172A" fill-opacity="0.55" letter-spacing="0.08em">IMPRIMERIE · IA</text>
  
  <rect x="518" y="132" width="537.3737373737374" height="760" fill="url(#paperTexture)" stroke="#FF6B35" stroke-width="2" rx="6" ry="6" filter="url(#shadowDouble)"/>
  <rect x="518" y="132" width="537.3737373737374" height="760" fill="url(#paperHighlight)" rx="6" ry="6" pointer-events="none"/>
  <rect x="550" y="212" width="363.03030303030306" height="6" fill="#0F172A" opacity="0.45" rx="2"/><rect x="550" y="268" width="432.8888888888889" height="6" fill="#0F172A" opacity="0.25" rx="2"/><rect x="550" y="324" width="363.03030303030306" height="6" fill="#0F172A" opacity="0.25" rx="2"/><rect x="550" y="380" width="432.8888888888889" height="6" fill="#0F172A" opacity="0.25" rx="2"/><rect x="550" y="436" width="363.03030303030306" height="6" fill="#0F172A" opacity="0.25" rx="2"/><rect x="550" y="492" width="432.8888888888889" height="6" fill="#0F172A" opacity="0.25" rx="2"/>
  <text x="786.6868686868687" y="852" text-anchor="middle" font-family="Inter" font-size="13" font-weight="500" fill="#0F172A" fill-opacity="0.65" letter-spacing="0.06em">magrit.io · contact@magrit.io</text>
</svg>