<svg xmlns="http://www.w3.org/2000/svg" viewBox="0 0 1024 1024" width="1024" height="1024">
  <defs>
    <linearGradient id="bg" x1="0%" y1="0%" x2="100%" y2="100%">
      <stop offset="0%" stop-color="#FF6B35" stop-opacity="0.06"/>
      <stop offset="100%" stop-color="#FF6B35" stop-opacity="0.22"/>
    </linearGradient>
    <pattern id="dotsCover" width="20" height="20" patternUnits="userSpaceOnUse">
      <circle cx="10" cy="10" r="1.6" fill="#FF6B35" opacity="0.45"/>
    </pattern>
    <linearGradient id="backFade" x1="0%" y1="0%" x2="0%" y2="100%">
      <stop offset="0%" stop-color="white" stop-opacity="1"/>
      <stop offset="100%" stop-color="#FF6B35" stop-opacity="0.18"/>
    </linearGradient>
    
    <filter id="shadowDouble" x="-15%" y="-15%" width="130%" height="130%">
      <feDropShadow dx="0" dy="4" stdDeviation="6" flood-color="#000" flood-opacity="0.18"/>
      <feDropShadow dx="0" dy="18" stdDeviation="24" flood-color="#FF6B35" flood-opacity="0.22"/>
    </filter>
    <linearGradient id="paperHighlight" x1="0%" y1="0%" x2="0%" y2="100%">
      <stop offset="0%" stop-color="#ffffff" stop-opacity="0.35"/>
      <stop offset="35%" stop-color="#ffffff" stop-opacity="0.05"/>
      <stop offset="100%" stop-color="#ffffff" stop-opacity="0"/>
    </linearGradient>
    <pattern id="paperTexture" width="6" height="6" patternUnits="userSpaceOnUse">
      <rect width="6" height="6" fill="white"/>
      <circle cx="1" cy="1" r="0.3" fill="#e5e5e5" opacity="0.6"/>
      <circle cx="4" cy="3" r="0.25" fill="#e5e5e5" opacity="0.5"/>
    </pattern>
  </defs>
  <rect width="1024" height="1024" fill="url(#bg)"/>
  <rect x="-31.373737373737413" y="132" width="537.3737373737374" height="760" fill="url(#paperTexture)" stroke="#FF6B35" stroke-width="2" rx="6" filter="url(#shadowDouble)"/>
  <rect x="-31.373737373737413" y="132" width="537.3737373737374" height="760" fill="url(#dotsCover)" rx="6"/>
  <rect x="-31.373737373737413" y="132" width="537.3737373737374" height="760" fill="url(#paperHighlight)" rx="6" pointer-events="none"/>
  <rect x="518" y="132" width="537.3737373737374" height="760" fill="url(#backFade)" stroke="#FF6B35" stroke-width="2" rx="6" filter="url(#shadowDouble)"/>
  <rect x="518" y="132" width="537.3737373737374" height="760" fill="url(#paperHighlight)" rx="6" pointer-events="none"/>
  
    <rect x="538" y="232" width="336.16161616161617" height="6" fill="#FF6B35" opacity="0.35" rx="3"/>
    <rect x="538" y="288" width="416.7676767676768" height="6" fill="#FF6B35" opacity="0.35" rx="3"/>
    <rect x="538" y="344" width="336.16161616161617" height="6" fill="#FF6B35" opacity="0.35" rx="3"/>
    <rect x="538" y="400" width="416.7676767676768" height="6" fill="#FF6B35" opacity="0.35" rx="3"/>
    <rect x="538" y="456" width="336.16161616161617" height="6" fill="#FF6B35" opacity="0.35" rx="3"/>
    <rect x="538" y="512" width="416.7676767676768" height="6" fill="#FF6B35" opacity="0.35" rx="3"/>
    <rect x="538" y="568" width="336.16161616161617" height="6" fill="#FF6B35" opacity="0.35" rx="3"/>
    <rect x="538" y="624" width="416.7676767676768" height="6" fill="#FF6B35" opacity="0.35" rx="3"/>
  <text x="237.3131313131313" y="512" text-anchor="middle" font-family="Inter" font-size="48" font-weight="700" fill="#FF6B35">Brochure A4</text>
</svg>