<svg xmlns="http://www.w3.org/2000/svg" viewBox="0 0 1024 1024" width="100%" height="100%">
    <defs><linearGradient id="bgGrad" x1="0%" y1="0%" x2="100%" y2="100%"><stop offset="0%" stop-color="#FF6B35" stop-opacity="0.08" /><stop offset="100%" stop-color="#FF6B35" stop-opacity="0.16" /></linearGradient>
    <filter id="shadowDouble" x="-15%" y="-15%" width="130%" height="130%">
      <feDropShadow dx="0" dy="4" stdDeviation="6" flood-color="#000" flood-opacity="0.18"/>
      <feDropShadow dx="0" dy="18" stdDeviation="24" flood-color="#FF6B35" flood-opacity="0.22"/>
    </filter>
    <linearGradient id="paperHighlight" x1="0%" y1="0%" x2="0%" y2="100%">
      <stop offset="0%" stop-color="#ffffff" stop-opacity="0.35"/>
      <stop offset="35%" stop-color="#ffffff" stop-opacity="0.05"/>
      <stop offset="100%" stop-color="#ffffff" stop-opacity="0"/>
    </linearGradient>
    <pattern id="paperTexture" width="6" height="6" patternUnits="userSpaceOnUse">
      <rect width="6" height="6" fill="white"/>
      <circle cx="1" cy="1" r="0.3" fill="#e5e5e5" opacity="0.6"/>
      <circle cx="4" cy="3" r="0.25" fill="#e5e5e5" opacity="0.5"/>
    </pattern>
    <radialGradient id="magritPollen" cx="50%" cy="50%" r="50%">
      <stop offset="0%" stop-color="#FFE066"/>
      <stop offset="60%" stop-color="#F5B529"/>
      <stop offset="100%" stop-color="#C68708"/>
    </radialGradient>
    <linearGradient id="magritTileGrad" x1="0%" y1="0%" x2="100%" y2="100%">
      <stop offset="0%" stop-color="#E5F0FC"/>
      <stop offset="100%" stop-color="#B7D3F2"/>
    </linearGradient></defs>
    <rect width="1024" height="1024" fill="url(#bgGrad)" /><g filter="url(#shadowDouble)"><rect x="92" y="272" width="840" height="480" fill="#FFFFFF" rx="4" /><rect x="92" y="272" width="840" height="480" fill="url(#paperHighlight)" rx="4" />
      <g transform="translate(92 272)"><rect x="30" y="40" width="120" height="80" fill="#F1F5F9" rx="2" /><rect x="30" y="140" width="220" height="8" fill="#E2E8F0" rx="1" /><rect x="30" y="160" width="180" height="8" fill="#E2E8F0" rx="1" /><rect x="30" y="220" width="220" height="100" fill="#F1F5F9" rx="2" /><rect x="30" y="340" width="200" height="8" fill="#E2E8F0" rx="1" /></g>
      <g transform="translate(372 272)"><rect x="0" y="0" width="280" height="480" fill="url(#magritTileGrad)" /><g transform="translate(140 210)"><g fill="#FFFFFF"><ellipse cx="0" cy="-36.4" rx="4.8999999999999995" ry="22.4" transform="rotate(0)"/><ellipse cx="0" cy="-36.4" rx="4.8999999999999995" ry="22.4" transform="rotate(20)"/><ellipse cx="0" cy="-36.4" rx="4.8999999999999995" ry="22.4" transform="rotate(40)"/><ellipse cx="0" cy="-36.4" rx="4.8999999999999995" ry="22.4" transform="rotate(60)"/><ellipse cx="0" cy="-36.4" rx="4.8999999999999995" ry="22.4" transform="rotate(80)"/><ellipse cx="0" cy="-36.4" rx="4.8999999999999995" ry="22.4" transform="rotate(100)"/><ellipse cx="0" cy="-36.4" rx="4.8999999999999995" ry="22.4" transform="rotate(120)"/><ellipse cx="0" cy="-36.4" rx="4.8999999999999995" ry="22.4" transform="rotate(140)"/><ellipse cx="0" cy="-36.4" rx="4.8999999999999995" ry="22.4" transform="rotate(160)"/><ellipse cx="0" cy="-36.4" rx="4.8999999999999995" ry="22.4" transform="rotate(180)"/><ellipse cx="0" cy="-36.4" rx="4.8999999999999995" ry="22.4" transform="rotate(200)"/><ellipse cx="0" cy="-36.4" rx="4.8999999999999995" ry="22.4" transform="rotate(220)"/><ellipse cx="0" cy="-36.4" rx="4.8999999999999995" ry="22.4" transform="rotate(240)"/><ellipse cx="0" cy="-36.4" rx="4.8999999999999995" ry="22.4" transform="rotate(260)"/><ellipse cx="0" cy="-36.4" rx="4.8999999999999995" ry="22.4" transform="rotate(280)"/><ellipse cx="0" cy="-36.4" rx="4.8999999999999995" ry="22.4" transform="rotate(300)"/><ellipse cx="0" cy="-36.4" rx="4.8999999999999995" ry="22.4" transform="rotate(320)"/><ellipse cx="0" cy="-36.4" rx="4.8999999999999995" ry="22.4" transform="rotate(340)"/></g><circle r="15.399999999999999" fill="url(#magritPollen)"/></g><text x="140" y="290" text-anchor="middle" font-family="Inter" font-style="italic" font-weight="500" font-size="36" fill="#0F172A" letter-spacing="-0.025em">Magrit</text></g>
      <g transform="translate(652 272)"><g transform="translate(140 100)"><g fill="#FFFFFF"><ellipse cx="0" cy="-28.6" rx="3.8500000000000005" ry="17.6" transform="rotate(0)"/><ellipse cx="0" cy="-28.6" rx="3.8500000000000005" ry="17.6" transform="rotate(20)"/><ellipse cx="0" cy="-28.6" rx="3.8500000000000005" ry="17.6" transform="rotate(40)"/><ellipse cx="0" cy="-28.6" rx="3.8500000000000005" ry="17.6" transform="rotate(60)"/><ellipse cx="0" cy="-28.6" rx="3.8500000000000005" ry="17.6" transform="rotate(80)"/><ellipse cx="0" cy="-28.6" rx="3.8500000000000005" ry="17.6" transform="rotate(100)"/><ellipse cx="0" cy="-28.6" rx="3.8500000000000005" ry="17.6" transform="rotate(120)"/><ellipse cx="0" cy="-28.6" rx="3.8500000000000005" ry="17.6" transform="rotate(140)"/><ellipse cx="0" cy="-28.6" rx="3.8500000000000005" ry="17.6" transform="rotate(160)"/><ellipse cx="0" cy="-28.6" rx="3.8500000000000005" ry="17.6" transform="rotate(180)"/><ellipse cx="0" cy="-28.6" rx="3.8500000000000005" ry="17.6" transform="rotate(200)"/><ellipse cx="0" cy="-28.6" rx="3.8500000000000005" ry="17.6" transform="rotate(220)"/><ellipse cx="0" cy="-28.6" rx="3.8500000000000005" ry="17.6" transform="rotate(240)"/><ellipse cx="0" cy="-28.6" rx="3.8500000000000005" ry="17.6" transform="rotate(260)"/><ellipse cx="0" cy="-28.6" rx="3.8500000000000005" ry="17.6" transform="rotate(280)"/><ellipse cx="0" cy="-28.6" rx="3.8500000000000005" ry="17.6" transform="rotate(300)"/><ellipse cx="0" cy="-28.6" rx="3.8500000000000005" ry="17.6" transform="rotate(320)"/><ellipse cx="0" cy="-28.6" rx="3.8500000000000005" ry="17.6" transform="rotate(340)"/></g><circle r="12.100000000000001" fill="url(#magritPollen)"/></g><text x="140" y="200" text-anchor="middle" font-family="Inter" font-style="italic" font-weight="500" font-size="42" fill="#0F172A" letter-spacing="-0.025em">Magrit</text><text x="140" y="225" text-anchor="middle" font-family="Inter" font-weight="400" font-size="11" fill="#0F172A" letter-spacing="0.08em" opacity="0.55">IMPRIMERIE · IA</text><rect x="40" y="300" width="200" height="8" fill="#E2E8F0" rx="1" /><rect x="40" y="320" width="140" height="8" fill="#E2E8F0" rx="1" /><rect x="0" y="472" width="280" height="8" fill="#F5B529" /></g>
      <line x1="372" y1="272" x2="372" y2="752" stroke="#CBD5E1" stroke-dasharray="4 4" stroke-width="1.5" /><line x1="652" y1="272" x2="652" y2="752" stroke="#CBD5E1" stroke-dasharray="4 4" stroke-width="1.5" /></g>
    <text x="932" y="782" text-anchor="end" font-family="Inter" font-weight="500" font-size="11" fill="#0F172A" opacity="0.45">Depliant A4</text>
  </svg>