<svg xmlns="http://www.w3.org/2000/svg" viewBox="0 0 1024 1024" width="1024" height="1024">
  <defs>
    <linearGradient id="bg" x1="0%" y1="0%" x2="100%" y2="100%">
      <stop offset="0%" stop-color="#FF6B35" stop-opacity="0.05"/>
      <stop offset="100%" stop-color="#FF6B35" stop-opacity="0.16"/>
    </linearGradient>
    <linearGradient id="mgTileEtiq" x1="0%" y1="0%" x2="100%" y2="100%">
      <stop offset="0%" stop-color="#E5F0FC"/>
      <stop offset="100%" stop-color="#B7D3F2"/>
    </linearGradient>
    <radialGradient id="mgCoreEtiq" cx="45%" cy="40%" r="55%">
      <stop offset="0%" stop-color="#FFE066"/>
      <stop offset="70%" stop-color="#F5B529"/>
      <stop offset="100%" stop-color="#C68708"/>
    </radialGradient>
    <clipPath id="etiqClip">
      <rect x="152" y="272" width="720" height="480" rx="24" ry="24"/>
    </clipPath>
    
    <filter id="shadowDouble" x="-15%" y="-15%" width="130%" height="130%">
      <feDropShadow dx="0" dy="4" stdDeviation="6" flood-color="#000" flood-opacity="0.18"/>
      <feDropShadow dx="0" dy="18" stdDeviation="24" flood-color="#FF6B35" flood-opacity="0.22"/>
    </filter>
    <linearGradient id="paperHighlight" x1="0%" y1="0%" x2="0%" y2="100%">
      <stop offset="0%" stop-color="#ffffff" stop-opacity="0.35"/>
      <stop offset="35%" stop-color="#ffffff" stop-opacity="0.05"/>
      <stop offset="100%" stop-color="#ffffff" stop-opacity="0"/>
    </linearGradient>
    <pattern id="paperTexture" width="6" height="6" patternUnits="userSpaceOnUse">
      <rect width="6" height="6" fill="white"/>
      <circle cx="1" cy="1" r="0.3" fill="#e5e5e5" opacity="0.6"/>
      <circle cx="4" cy="3" r="0.25" fill="#e5e5e5" opacity="0.5"/>
    </pattern>
  </defs>
  <rect width="1024" height="1024" fill="url(#bg)"/>
  <rect x="152" y="272" width="720" height="480" fill="url(#mgTileEtiq)" stroke="#FF6B35" stroke-width="2" stroke-dasharray="6 4" rx="24" ry="24" filter="url(#shadowDouble)"/>
  <g clip-path="url(#etiqClip)">
    <g transform="translate(512 454.4)">
    <g fill="#FFFFFF"><ellipse cx="0" cy="-83.2" rx="11.200000000000001" ry="51.2" transform="rotate(0)"/><ellipse cx="0" cy="-83.2" rx="11.200000000000001" ry="51.2" transform="rotate(20)"/><ellipse cx="0" cy="-83.2" rx="11.200000000000001" ry="51.2" transform="rotate(40)"/><ellipse cx="0" cy="-83.2" rx="11.200000000000001" ry="51.2" transform="rotate(60)"/><ellipse cx="0" cy="-83.2" rx="11.200000000000001" ry="51.2" transform="rotate(80)"/><ellipse cx="0" cy="-83.2" rx="11.200000000000001" ry="51.2" transform="rotate(100)"/><ellipse cx="0" cy="-83.2" rx="11.200000000000001" ry="51.2" transform="rotate(120)"/><ellipse cx="0" cy="-83.2" rx="11.200000000000001" ry="51.2" transform="rotate(140)"/><ellipse cx="0" cy="-83.2" rx="11.200000000000001" ry="51.2" transform="rotate(160)"/><ellipse cx="0" cy="-83.2" rx="11.200000000000001" ry="51.2" transform="rotate(180)"/><ellipse cx="0" cy="-83.2" rx="11.200000000000001" ry="51.2" transform="rotate(200)"/><ellipse cx="0" cy="-83.2" rx="11.200000000000001" ry="51.2" transform="rotate(220)"/><ellipse cx="0" cy="-83.2" rx="11.200000000000001" ry="51.2" transform="rotate(240)"/><ellipse cx="0" cy="-83.2" rx="11.200000000000001" ry="51.2" transform="rotate(260)"/><ellipse cx="0" cy="-83.2" rx="11.200000000000001" ry="51.2" transform="rotate(280)"/><ellipse cx="0" cy="-83.2" rx="11.200000000000001" ry="51.2" transform="rotate(300)"/><ellipse cx="0" cy="-83.2" rx="11.200000000000001" ry="51.2" transform="rotate(320)"/><ellipse cx="0" cy="-83.2" rx="11.200000000000001" ry="51.2" transform="rotate(340)"/></g>
    <circle r="35.2" fill="url(#mgCoreEtiq)"/>
  </g>
    <rect x="152" y="744" width="720" height="8" fill="#F5B529"/>
  </g>
  <rect x="152" y="272" width="720" height="480" fill="url(#paperHighlight)" rx="24" ry="24" opacity="0.5" pointer-events="none"/>
  <text x="512" y="608" text-anchor="middle" font-family="Inter" font-size="32" font-weight="700" fill="#0F172A" letter-spacing="-0.025em">Etiquette</text>
  <text x="512" y="632" text-anchor="middle" font-family="Inter" font-size="12" font-weight="500" font-style="italic" fill="#0F172A" fill-opacity="0.60" letter-spacing="-0.01em">by Magrit</text>
</svg>