<svg xmlns="http://www.w3.org/2000/svg" viewBox="0 0 1024 1024" width="1024" height="1024">
  <defs>
    <linearGradient id="bg" x1="0%" y1="0%" x2="100%" y2="100%">
      <stop offset="0%" stop-color="#FF6B35" stop-opacity="0.06"/>
      <stop offset="100%" stop-color="#FF6B35" stop-opacity="0.16"/>
    </linearGradient>
    <linearGradient id="mgTileBand" x1="0%" y1="0%" x2="100%" y2="100%">
      <stop offset="0%" stop-color="#E5F0FC"/>
      <stop offset="100%" stop-color="#B7D3F2"/>
    </linearGradient>
    <radialGradient id="mgCoreBand" cx="45%" cy="40%" r="55%">
      <stop offset="0%" stop-color="#FFE066"/>
      <stop offset="70%" stop-color="#F5B529"/>
      <stop offset="100%" stop-color="#C68708"/>
    </radialGradient>
    <clipPath id="flyerClip">
      <rect x="265.3333333333333" y="162" width="493.33333333333337" height="700" rx="8" ry="8"/>
    </clipPath>
    
    <filter id="shadowDouble" x="-15%" y="-15%" width="130%" height="130%">
      <feDropShadow dx="0" dy="4" stdDeviation="6" flood-color="#000" flood-opacity="0.18"/>
      <feDropShadow dx="0" dy="18" stdDeviation="24" flood-color="#FF6B35" flood-opacity="0.22"/>
    </filter>
    <linearGradient id="paperHighlight" x1="0%" y1="0%" x2="0%" y2="100%">
      <stop offset="0%" stop-color="#ffffff" stop-opacity="0.35"/>
      <stop offset="35%" stop-color="#ffffff" stop-opacity="0.05"/>
      <stop offset="100%" stop-color="#ffffff" stop-opacity="0"/>
    </linearGradient>
    <pattern id="paperTexture" width="6" height="6" patternUnits="userSpaceOnUse">
      <rect width="6" height="6" fill="white"/>
      <circle cx="1" cy="1" r="0.3" fill="#e5e5e5" opacity="0.6"/>
      <circle cx="4" cy="3" r="0.25" fill="#e5e5e5" opacity="0.5"/>
    </pattern>
  </defs>
  <rect width="1024" height="1024" fill="url(#bg)"/>
  
  <rect x="265.3333333333333" y="162" width="493.33333333333337" height="700" fill="url(#paperTexture)" stroke="#FF6B35" stroke-width="2" rx="8" ry="8" filter="url(#shadowDouble)"/>
  <rect x="265.3333333333333" y="162" width="493.33333333333337" height="700" fill="url(#paperHighlight)" rx="8" ry="8" pointer-events="none"/>
  <g clip-path="url(#flyerClip)">
    <rect x="265.3333333333333" y="162" width="493.33333333333337" height="244.99999999999997" fill="url(#mgTileBand)"/>
    <g transform="translate(512 284.5)">
    <g fill="#FFFFFF"><ellipse cx="0" cy="-53.08333333333333" rx="7.145833333333333" ry="32.666666666666664" transform="rotate(0)"/><ellipse cx="0" cy="-53.08333333333333" rx="7.145833333333333" ry="32.666666666666664" transform="rotate(20)"/><ellipse cx="0" cy="-53.08333333333333" rx="7.145833333333333" ry="32.666666666666664" transform="rotate(40)"/><ellipse cx="0" cy="-53.08333333333333" rx="7.145833333333333" ry="32.666666666666664" transform="rotate(60)"/><ellipse cx="0" cy="-53.08333333333333" rx="7.145833333333333" ry="32.666666666666664" transform="rotate(80)"/><ellipse cx="0" cy="-53.08333333333333" rx="7.145833333333333" ry="32.666666666666664" transform="rotate(100)"/><ellipse cx="0" cy="-53.08333333333333" rx="7.145833333333333" ry="32.666666666666664" transform="rotate(120)"/><ellipse cx="0" cy="-53.08333333333333" rx="7.145833333333333" ry="32.666666666666664" transform="rotate(140)"/><ellipse cx="0" cy="-53.08333333333333" rx="7.145833333333333" ry="32.666666666666664" transform="rotate(160)"/><ellipse cx="0" cy="-53.08333333333333" rx="7.145833333333333" ry="32.666666666666664" transform="rotate(180)"/><ellipse cx="0" cy="-53.08333333333333" rx="7.145833333333333" ry="32.666666666666664" transform="rotate(200)"/><ellipse cx="0" cy="-53.08333333333333" rx="7.145833333333333" ry="32.666666666666664" transform="rotate(220)"/><ellipse cx="0" cy="-53.08333333333333" rx="7.145833333333333" ry="32.666666666666664" transform="rotate(240)"/><ellipse cx="0" cy="-53.08333333333333" rx="7.145833333333333" ry="32.666666666666664" transform="rotate(260)"/><ellipse cx="0" cy="-53.08333333333333" rx="7.145833333333333" ry="32.666666666666664" transform="rotate(280)"/><ellipse cx="0" cy="-53.08333333333333" rx="7.145833333333333" ry="32.666666666666664" transform="rotate(300)"/><ellipse cx="0" cy="-53.08333333333333" rx="7.145833333333333" ry="32.666666666666664" transform="rotate(320)"/><ellipse cx="0" cy="-53.08333333333333" rx="7.145833333333333" ry="32.666666666666664" transform="rotate(340)"/></g>
    <circle r="22.458333333333332" fill="url(#mgCoreBand)"/>
  </g>
    <rect x="265.3333333333333" y="854" width="493.33333333333337" height="8" fill="#F5B529"/>
  </g>
  <text x="512" y="477" text-anchor="middle" font-family="Helvetica Neue, Helvetica, Arial, sans-serif" font-size="64" font-weight="500" font-style="italic" fill="#0F172A" letter-spacing="-0.025em">Magrit</text>
  <text x="512" y="501" text-anchor="middle" font-family="Helvetica Neue, Helvetica, Arial, sans-serif" font-size="15" font-weight="400" fill="#0F172A" fill-opacity="0.55" letter-spacing="0.08em">IMPRIMERIE AUGMENTÉE PAR L'IA</text>
  <rect x="325.3333333333333" y="541" width="373.33333333333337" height="6" fill="#0F172A" opacity="0.30" rx="2"/>
  <rect x="325.3333333333333" y="569" width="317.33333333333337" height="6" fill="#0F172A" opacity="0.22" rx="2"/>
  <rect x="325.3333333333333" y="597" width="336.00000000000006" height="6" fill="#0F172A" opacity="0.22" rx="2"/>
  <rect x="325.3333333333333" y="625" width="205.33333333333337" height="6" fill="#0F172A" opacity="0.22" rx="2"/>
  <text x="512" y="792" text-anchor="middle" font-family="Helvetica Neue, Helvetica, Arial, sans-serif" font-size="13" font-weight="500" fill="#0F172A" fill-opacity="0.65" letter-spacing="0.06em">magrit.io · contact@magrit.io</text>
  <text x="742.6666666666667" y="838" text-anchor="end" font-family="Helvetica Neue, Helvetica, Arial, sans-serif" font-size="10" font-weight="500" fill="#0F172A" fill-opacity="0.40" letter-spacing="0.04em">Flyer A5 Test</text>
</svg>