<svg xmlns="http://www.w3.org/2000/svg" viewBox="0 0 1024 1024" width="1024" height="1024">
  <defs>
    <linearGradient id="bg" x1="0%" y1="0%" x2="100%" y2="100%">
      <stop offset="0%" stop-color="#FF6B35" stop-opacity="0.06"/>
      <stop offset="100%" stop-color="#FF6B35" stop-opacity="0.16"/>
    </linearGradient>
    <linearGradient id="mgTileKakemono" x1="0%" y1="0%" x2="100%" y2="100%">
      <stop offset="0%" stop-color="#E5F0FC"/>
      <stop offset="100%" stop-color="#B7D3F2"/>
    </linearGradient>
    <radialGradient id="mgCoreKakemono" cx="45%" cy="40%" r="55%">
      <stop offset="0%" stop-color="#FFE066"/>
      <stop offset="70%" stop-color="#F5B529"/>
      <stop offset="100%" stop-color="#C68708"/>
    </radialGradient>
    <clipPath id="kakemonoClip">
      <rect x="325" y="72" width="374" height="880" rx="4" ry="4"/>
    </clipPath>
    
    <filter id="shadowDouble" x="-15%" y="-15%" width="130%" height="130%">
      <feDropShadow dx="0" dy="4" stdDeviation="6" flood-color="#000" flood-opacity="0.18"/>
      <feDropShadow dx="0" dy="18" stdDeviation="24" flood-color="#FF6B35" flood-opacity="0.22"/>
    </filter>
    <linearGradient id="paperHighlight" x1="0%" y1="0%" x2="0%" y2="100%">
      <stop offset="0%" stop-color="#ffffff" stop-opacity="0.35"/>
      <stop offset="35%" stop-color="#ffffff" stop-opacity="0.05"/>
      <stop offset="100%" stop-color="#ffffff" stop-opacity="0"/>
    </linearGradient>
    <pattern id="paperTexture" width="6" height="6" patternUnits="userSpaceOnUse">
      <rect width="6" height="6" fill="white"/>
      <circle cx="1" cy="1" r="0.3" fill="#e5e5e5" opacity="0.6"/>
      <circle cx="4" cy="3" r="0.25" fill="#e5e5e5" opacity="0.5"/>
    </pattern>
  </defs>
  <rect width="1024" height="1024" fill="url(#bg)"/>
  
  <rect x="325" y="72" width="374" height="880" fill="url(#paperTexture)" stroke="#FF6B35" stroke-width="2" rx="4" ry="4" filter="url(#shadowDouble)"/>
  <rect x="325" y="72" width="374" height="880" fill="url(#paperHighlight)" rx="4" ry="4" pointer-events="none"/>
  <g clip-path="url(#kakemonoClip)">
    <rect x="325" y="72" width="374" height="246.40000000000003" fill="url(#mgTileKakemono)"/>
    <g transform="translate(512 195.20000000000002)">
    <g fill="#FFFFFF"><ellipse cx="0" cy="-58.24000000000001" rx="7.840000000000001" ry="35.84" transform="rotate(0)"/><ellipse cx="0" cy="-58.24000000000001" rx="7.840000000000001" ry="35.84" transform="rotate(20)"/><ellipse cx="0" cy="-58.24000000000001" rx="7.840000000000001" ry="35.84" transform="rotate(40)"/><ellipse cx="0" cy="-58.24000000000001" rx="7.840000000000001" ry="35.84" transform="rotate(60)"/><ellipse cx="0" cy="-58.24000000000001" rx="7.840000000000001" ry="35.84" transform="rotate(80)"/><ellipse cx="0" cy="-58.24000000000001" rx="7.840000000000001" ry="35.84" transform="rotate(100)"/><ellipse cx="0" cy="-58.24000000000001" rx="7.840000000000001" ry="35.84" transform="rotate(120)"/><ellipse cx="0" cy="-58.24000000000001" rx="7.840000000000001" ry="35.84" transform="rotate(140)"/><ellipse cx="0" cy="-58.24000000000001" rx="7.840000000000001" ry="35.84" transform="rotate(160)"/><ellipse cx="0" cy="-58.24000000000001" rx="7.840000000000001" ry="35.84" transform="rotate(180)"/><ellipse cx="0" cy="-58.24000000000001" rx="7.840000000000001" ry="35.84" transform="rotate(200)"/><ellipse cx="0" cy="-58.24000000000001" rx="7.840000000000001" ry="35.84" transform="rotate(220)"/><ellipse cx="0" cy="-58.24000000000001" rx="7.840000000000001" ry="35.84" transform="rotate(240)"/><ellipse cx="0" cy="-58.24000000000001" rx="7.840000000000001" ry="35.84" transform="rotate(260)"/><ellipse cx="0" cy="-58.24000000000001" rx="7.840000000000001" ry="35.84" transform="rotate(280)"/><ellipse cx="0" cy="-58.24000000000001" rx="7.840000000000001" ry="35.84" transform="rotate(300)"/><ellipse cx="0" cy="-58.24000000000001" rx="7.840000000000001" ry="35.84" transform="rotate(320)"/><ellipse cx="0" cy="-58.24000000000001" rx="7.840000000000001" ry="35.84" transform="rotate(340)"/></g>
    <circle r="24.64" fill="url(#mgCoreKakemono)"/>
  </g>
    <rect x="325" y="944" width="374" height="8" fill="#F5B529"/>
  </g>
  <text x="512" y="398.40000000000003" text-anchor="middle" font-family="Inter" font-size="72" font-weight="500" font-style="italic" fill="#0F172A" letter-spacing="-0.025em">Magrit</text>
  <text x="512" y="426.40000000000003" text-anchor="middle" font-family="Inter" font-size="16" font-weight="400" fill="#0F172A" fill-opacity="0.55" letter-spacing="0.08em">IMPRIMERIE AUGMENTÉE PAR L'IA</text>
  <rect x="385" y="484.40000000000003" width="254" height="6" fill="#0F172A" opacity="0.32" rx="2"/>
  <rect x="385" y="514.4000000000001" width="208.28" height="5" fill="#0F172A" opacity="0.22" rx="2"/>
  <rect x="385" y="544.4000000000001" width="182.88" height="5" fill="#0F172A" opacity="0.22" rx="2"/>
  <text x="512" y="862" text-anchor="middle" font-family="Inter" font-size="14" font-weight="500" fill="#0F172A" fill-opacity="0.65" letter-spacing="0.06em">magrit.io · contact@magrit.io</text>
  <rect x="268.9" y="938" width="486.2" height="28" fill="#2A2A2D" rx="6"/>
</svg>